<svg xmlns:xlink="http://www.w3.org/1999/xlink" xmlns="http://www.w3.org/2000/svg" viewBox="0 0 410 169" height="169" width="410" style="width: 410px; height: 169px; position: absolute; top: 50%; left: 50%; z-index: 0; cursor: pointer; transform: translate(-50%, -50%) scale(0.468293);"><defs id="SvgjsDefs2000"></defs><g id="SvgjsG2001" featurekey="rootContainer" transform="matrix(1,0,0,1,0,0)" fill="#000000"><rect xmlns="http://www.w3.org/2000/svg" width="410" height="169" rx="10" ry="10"></rect></g><g id="SvgjsG2002" featurekey="FRM3ZD-0" transform="matrix(10.602205721795393,0,0,10.602205721795393,19.698684807025128,-73.05342222484299)" fill="#FFFFFF"><path d="M7.1 13.92 c0.38666 0.32 0.69336 0.68998 0.92002 1.11 s0.34 0.87666 0.34 1.37 s-0.12 0.96 -0.36 1.4 s-0.57 0.82334 -0.99 1.15 s-0.91 0.58332 -1.47 0.76998 s-1.16 0.28 -1.8 0.28 s-1.2367 -0.09334 -1.79 -0.28 s-1.0367 -0.44 -1.45 -0.76 l1.1 -4.14 c-0.58666 -0.54666 -0.88 -1.1867 -0.88 -1.92 c0 -0.44 0.11666 -0.85334 0.35 -1.24 s0.55 -0.72332 0.95 -1.01 s0.86666 -0.51332 1.4 -0.67998 s1.1 -0.25 1.7 -0.25 c0.54666 0 1.0667 0.06666 1.56 0.2 s0.93334 0.33334 1.32 0.6 z" fill="#FFFFFF"></path></g><g id="SvgjsG2003" featurekey="vMvB0T-0" transform="matrix(3.0002993500881256,0,0,3.0002993500881256,122.09991248402031,44.87819203992006)" fill="#FFFFFF"><path d="M0.3 18.82 q0.06 -0.66 0.41 -1.32 t0.83 -1.08 q2.14 1.3 4.06 1.3 q0.84 0 1.23 -0.38 t0.39 -0.94 q0 -0.94 -1.26 -1.48 l-2.36 -1 q-1.38 -0.62 -2.12 -1.49 t-0.74 -2.21 q0 -0.92 0.37 -1.68 t1.04 -1.32 t1.59 -0.87 t2.04 -0.31 q2.24 0 4.52 1.14 q-0.1 1.54 -1.08 2.4 q-2.04 -0.98 -3.6 -0.98 q-0.8 0 -1.2 0.36 t-0.4 0.82 q0 0.78 1.18 1.26 l2.4 1.02 q1.52 0.64 2.27 1.64 t0.75 2.32 q0 0.94 -0.34 1.72 t-1.01 1.35 t-1.67 0.89 t-2.34 0.32 q-2.6 0 -4.96 -1.48 z M17.84 8.98 l0.02 1.48 l0 9.54 q-0.68 0.12 -1.62 0.12 t-1.58 -0.12 l0 -11.02 l-1.28 0.02 l-2.06 0 q-0.12 -0.58 -0.12 -1.33 t0.12 -1.33 l9.9 0 q0.16 0.52 0.16 1.26 t-0.4 1.07 t-1.28 0.33 l-0.58 0 l-1.26 -0.02 l-0.02 0 z M32.660000000000004 10.56 q0 0.66 -0.2 1.25 t-0.53 1.06 t-0.78 0.82 t-0.93 0.53 q1.04 0.38 1.54 1.84 l0.6 1.7 q0.34 1 1 1.48 q-0.3 0.4 -0.9 0.67 t-1.32 0.27 t-1.12 -0.41 t-0.74 -1.43 l-0.72 -2.1 q-0.22 -0.6 -0.59 -0.92 t-1.11 -0.32 l-0.82 0 l0 5 q-0.64 0.12 -1.6 0.12 t-1.58 -0.12 l0 -13.56 l0.14 -0.14 q1.74 -0.04 2.93 -0.06 t1.87 -0.02 q1.1 0 2 0.27 t1.53 0.81 t0.98 1.36 t0.35 1.9 z M26.040000000000003 8.62 l0 3.92 q0.9 0 1.54 -0.03 t1.03 -0.24 t0.59 -0.59 t0.2 -1.1 q0 -1.94 -1.88 -1.94 l-0.83 0 t-0.65 -0.02 z M35.2 20 l0 -13.66 q0.62 -0.12 1.6 -0.12 t1.62 0.12 l0 13.66 q-0.64 0.12 -1.62 0.12 t-1.6 -0.12 z M46.28 15.719999999999999 l-1.58 0 l0 4.28 q-0.64 0.12 -1.6 0.12 q-0.98 0 -1.6 -0.12 l0 -13.56 l0.14 -0.14 q1.74 -0.04 2.89 -0.06 t1.75 -0.02 q1.1 0 2.01 0.3 t1.55 0.9 t0.99 1.49 t0.35 2.05 t-0.36 2.05 t-1 1.49 t-1.55 0.91 t-1.99 0.31 z M44.7 8.66 l0 4.66 q0.56 -0.02 0.89 -0.03 t0.43 -0.01 q0.54 0 0.9 -0.19 t0.58 -0.5 t0.32 -0.73 t0.1 -0.88 q0 -0.44 -0.1 -0.86 t-0.31 -0.74 t-0.55 -0.51 t-0.8 -0.19 l-0.82 0 t-0.64 -0.02 z M56.24000000000001 16.28 q0.54 1.56 2.18 1.56 q0.82 0 1.33 -0.41 t0.8 -1.04 t0.39 -1.41 t0.1 -1.54 q0 -0.7 -0.05 -1.56 t-0.29 -1.61 t-0.76 -1.26 t-1.52 -0.51 q-0.96 0 -1.47 0.49 t-0.76 1.21 t-0.31 1.53 t-0.06 1.43 q0 0.92 0.09 1.64 t0.33 1.48 z M54.620000000000005 19.04 q-2.14 -1.78 -2.14 -5.86 q0 -1.76 0.41 -3.09 t1.18 -2.23 t1.87 -1.36 t2.48 -0.46 t2.49 0.46 t1.88 1.37 t1.18 2.24 t0.41 3.07 t-0.41 3.07 t-1.18 2.23 t-1.88 1.36 t-2.49 0.46 q-2.28 0 -3.8 -1.26 z M77.24000000000001 6.34 l0 8.62 q0 2.56 -1.4 3.95 t-4 1.39 t-4.01 -1.39 t-1.41 -3.95 l0 -8.62 l0.14 -0.14 l1.18 0 q1.9 0 1.9 2.04 l0 6.76 q0 1.4 0.5 2.08 t1.7 0.68 t1.7 -0.68 t0.5 -2.08 l0 -8.66 q0.62 -0.12 1.6 -0.12 q0.96 0 1.6 0.12 z M79.48 16.9 l4.44 -6.1 q0.68 -0.98 1.62 -1.98 l-0.06 -0.06 q-1.42 0.18 -3.1 0.18 l-2.86 0 q-0.12 -0.46 -0.12 -1.11 t0.22 -1.49 l8.86 0 q0.44 1.66 0.44 2.11 t-0.36 0.97 l-4.46 6.12 q-0.68 0.96 -1.56 1.88 l0.06 0.06 q2 -0.14 3 -0.14 l1.12 0 q1.2 0 2.24 -0.46 q0.22 0.7 0.22 1.48 t-0.57 1.21 t-1.53 0.43 l-7.64 0 q-0.36 -1.6 -0.36 -2.07 t0.4 -1.03 z" fill="#FFFFFF"></path></g></svg>