<svg xmlns:xlink="http://www.w3.org/1999/xlink" xmlns="http://www.w3.org/2000/svg" id="132470384" viewBox="0 0 410.3636363636363 115" height="115" width="410.3636363636363" style="width: 410.364px; height: 115px; position: absolute; top: 50%; left: 50%; transform: translate(-50%, -50%) scale(0.562915); z-index: 0; cursor: pointer;"><defs id="SvgjsDefs1969"></defs><g id="SvgjsG1970" featurekey="symbolContainer" transform="matrix(1,0,0,1,0,0)" fill="#76B39D"><rect width="104" height="115" rx="8" fill="#76B39D"></rect></g><g id="SvgjsG1971" featurekey="monogramFeature-0" transform="matrix(1.9387909973926807,0,0,1.9387909973926807,20.005246467070677,-16.36683218516377)" fill="#111111"><path d="M0.72 16.560000000000002 l0 0 c0 -0.06 30.66 -0.48 30.84 -0.36 c0.78 0.72 1.14 7.44 1.26 15.42 c-3.18 -2.7 -8.1 -5.52 -14.88 -5.7 c-1.14 0 -2.04 0.84 -2.1 1.98 c0 1.14 0.84 2.04 1.98 2.1 c8.34 0.18 13.14 4.98 15 7.38 c0 10.5 -0.48 21.12 -1.08 21.72 c-1.26 1.08 -30.42 1.38 -31.2 0 c-0.6 -1.14 -0.6 -11.52 -0.48 -21.72 c6.06 0.48 15.72 2.46 17.4 9.9 c0.3 1.08 1.32 1.8 2.4 1.56 c1.14 -0.3 1.8 -1.32 1.56 -2.46 c-2.22 -9.96 -14.28 -12.48 -21.24 -13.02 c0.18 -8.94 0.42 -16.74 0.54 -16.8 z" fill="#111111"></path></g><g id="SvgjsG1972" featurekey="nameFeature-0" transform="matrix(1.6084782326149787,0,0,1.6084782326149787,122.39152176738502,10.148634684242424)" fill="#F9F8EB"><path d="M12.04 25.439999999999998 c-0.64 -1.48 -1.56 -2.04 -2.68 -2.04 c-1.04 0 -2 0.64 -2 1.56 c0 0.88 0.56 1.44 1.68 1.84 l2.52 0.92 c3.04 1.08 6 2.2 6 6.24 c0 4.16 -4.12 6.52 -8.32 6.52 c-3.8 0 -7.4 -2.24 -8.24 -5.88 l4.52 -1.4 c0.52 1.4 1.64 2.72 3.72 2.72 c1.48 0 2.6 -0.96 2.6 -2 c0 -0.68 -0.48 -1.28 -1.72 -1.76 l-2.4 -0.84 c-4.08 -1.48 -5.96 -3.6 -5.96 -6.44 c0 -3.76 3.48 -6.04 7.36 -6.04 c3.92 0 6.52 2.12 7.72 5.36 z M30.32 35.2 c1.08 0 1.88 -0.12 2.76 -0.44 l0 4.8 c-0.88 0.4 -2.24 0.68 -4.24 0.68 c-3.24 0 -5.96 -1.12 -5.96 -7 l0 -9.32 l-2.92 0 l0 -4.72 l2.92 0 l0 -4.88 l5.72 0 l0 4.88 l4.44 0 l0 4.72 l-4.44 0 l0 9.28 c0 0.96 0.28 2 1.72 2 z M49.44 18.88 c0.52 0 1 0 1.52 0.12 l0 5.48 c-0.48 -0.12 -0.96 -0.12 -1.36 -0.12 c-3.84 0 -7 2.76 -7.36 6.76 l0 8.88 l-5.72 0 l0 -20.8 l5.72 0 l0 5.2 c0.92 -3.16 3.44 -5.52 7.2 -5.52 z M59.959999999999994 11.719999999999999 l0 4.88 l-5.72 0 l0 -4.88 l5.72 0 z M59.959999999999994 19.2 l0 20.8 l-5.72 0 l0 -20.8 l5.72 0 z M75.6 18.84 c4.76 0 10.28 3.56 10.28 10.72 c0 7.4 -5.52 10.84 -10.28 10.84 c-3.6 0 -5.64 -2.12 -5.76 -2.96 l0 10.16 l-5.72 0 l0 -12.24 l0 -16.16 l5.72 0 l0 2.32 c0.12 -0.44 2.16 -2.68 5.76 -2.68 z M74.8 35.32 c2.88 0 5.52 -1.96 5.52 -5.76 c0 -3.68 -2.64 -5.64 -5.52 -5.64 c-2.8 0 -5.24 1.92 -5.24 5.64 c0 3.84 2.44 5.76 5.24 5.76 z M99.6 18.84 c4.72 0 10.88 3.56 10.88 10.84 s-6.16 10.72 -10.88 10.72 s-10.92 -3.44 -10.92 -10.72 s6.2 -10.84 10.92 -10.84 z M99.6 23.92 c-2.6 0 -5.36 1.96 -5.36 5.76 c0 3.68 2.76 5.64 5.36 5.64 c2.56 0 5.36 -1.96 5.36 -5.64 c0 -3.8 -2.8 -5.76 -5.36 -5.76 z M121.56 40.32 c-3.96 0 -7.88 -2.6 -7.88 -9.16 l0 -11.96 l5.72 0 l0 11.56 c0 3.4 1.32 4.56 3.52 4.56 c3.04 0 4.84 -2.88 5.28 -4.32 l0 -11.8 l5.72 0 l0 20.8 l-5.72 0 l0 -3.84 c-0.4 1.08 -2.64 4.16 -6.64 4.16 z M156.76 19.2 l-10.6 15.8 l10 0 l0 5 l-19.16 0 l10.6 -15.8 l-9.64 0 l0 -5 l18.8 0 z M168.88 18.84 c4.72 0 11.24 3.56 10 12.76 l-15.12 0 c0.72 2.6 2.88 3.96 5.68 3.96 c2.6 0 3.6 -0.6 5.08 -1.4 l3.16 3.08 c-1.8 1.88 -4.36 3.16 -8.44 3.16 c-5.2 0 -11.28 -3.56 -11.28 -10.72 c0 -7.28 6.2 -10.84 10.92 -10.84 z M168.88 23.72 c-2.08 0 -4.28 1.28 -5.04 3.84 l10 0 c-0.64 -2.56 -2.92 -3.84 -4.96 -3.84 z" fill="#F9F8EB"></path></g></svg>