<svg xmlns:xlink="http://www.w3.org/1999/xlink" xmlns="http://www.w3.org/2000/svg" id="132470243" viewBox="0 0 310.00000000000006 294.94325226654075" height="294.94325226654075" width="310.00000000000006" style="width: 310px; height: 294.943px; position: absolute; top: 50%; left: 50%; transform: translate(-50%, -50%) scale(0.557734); z-index: 0; cursor: pointer;"><defs id="SvgjsDefs1976"></defs><g id="SvgjsG1977" featurekey="rootContainer" transform="matrix(1.569655179234111,0,0,1.569655179234111,-0.0036999206868160825,-0.0018973770820091052)" fill="#111111"><path xmlns="http://www.w3.org/2000/svg" d="M186.037 47.606c-2.199-3.918-4.573-7.708-7.278-11.212-2.673-3.521-5.532-6.862-8.641-9.896-1.501-1.568-3.157-2.966-4.737-4.419l-2.486-2.04c-.416-.335-.822-.681-1.244-1.006l-1.286-.948c-3.376-2.588-6.978-4.783-10.585-6.828-1.85-.953-3.631-1.955-5.557-2.789-.942-.424-1.896-.887-2.819-1.272l-2.741-1.088-1.436-.563-1.428-.485-2.84-.963-2.865-.816c-.952-.27-1.896-.548-2.859-.748l-2.861-.651c-.947-.225-1.914-.351-2.863-.53-.955-.153-1.896-.36-2.85-.465l-2.844-.348c-.941-.134-1.888-.19-2.829-.256l-2.809-.197-2.793-.058c-.926-.021-1.848-.047-2.766-.002a92.396 92.396 0 0 0-20.951 2.813C70.563 6.3 59.408 12.063 50.684 18.606a94.794 94.794 0 0 0-11.452 10.073c-.852.814-1.59 1.705-2.365 2.525l-1.131 1.235c-.364.415-.705.842-1.052 1.256l-2.014 2.438-1.806 2.405c-4.652 6.288-7.49 11.763-9.253 15.556-.942 1.875-1.481 3.375-1.92 4.36l-.631 1.504-.003.007-.574 1.533c-.356 1.019-.997 2.493-1.593 4.497-1.313 3.961-3.002 9.899-3.925 17.664l-.334 2.989-.205 3.155c-.03.539-.075 1.083-.095 1.635l-.023 1.675c.002 1.128-.071 2.283-.009 3.46.065 4.71.49 9.809 1.436 15.183 1.26 7.265 3.635 15.029 7.239 22.851.779.461 1.548.94 2.31 1.432-4.283-8.301-7.051-16.679-8.546-24.475-2.073-10.61-1.93-20.139-1.051-27.822.868-7.709 2.508-13.618 3.789-17.561.58-1.996 1.208-3.463 1.556-4.478l.56-1.525.639-1.496c.443-.978.997-2.489 1.94-4.333 1.766-3.739 4.625-9.172 9.278-15.377 4.628-6.196 11.056-13.232 19.838-19.535A91.401 91.401 0 0 1 84.063 4.544a90.29 90.29 0 0 1 20.54-2.216c.895-.022 1.792.028 2.692.072l2.713.125 2.725.263c.912.087 1.829.165 2.74.32l2.75.409c.923.124 1.831.351 2.751.522.916.198 1.847.342 2.759.585l2.753.702c.926.215 1.834.51 2.747.795l2.748.859 2.72 1.002 1.366.503c.433.17.895.378 1.341.566l2.71 1.16c.897.402 1.764.855 2.652 1.283 1.786.825 3.494 1.846 5.243 2.803 3.416 2.057 6.815 4.246 9.982 6.808l1.207.938c.396.322.776.663 1.166.994l2.327 2.01c1.474 1.431 3.021 2.8 4.415 4.336 2.893 2.969 5.534 6.223 7.991 9.637 2.489 3.396 4.649 7.057 6.641 10.824a90.788 90.788 0 0 1 8.513 24.324 91.449 91.449 0 0 1 1.326 26.142l-.353 3.283c-.149 1.09-.337 2.177-.503 3.266-.091.543-.161 1.091-.268 1.631l-.337 1.619c-.239 1.076-.419 2.167-.706 3.232-1.022 4.289-2.432 8.505-3.994 12.605-1.699 4.128-3.542 8.104-5.743 11.943-.521.972-1.138 1.89-1.702 2.837l-.864 1.41c-.292.467-.617.913-.923 1.371-.625.907-1.233 1.826-1.872 2.723l-1.994 2.632a91.506 91.506 0 0 1-18.886 18.123 90.78 90.78 0 0 1-22.873 11.874c-4.033 1.377-8.116 2.561-12.256 3.328-4.129.801-8.283 1.359-12.424 1.538-2.068.163-4.133.099-6.187.13l-3.072-.133c-.51-.026-1.021-.038-1.53-.075l-1.522-.145c-4.062-.306-8.038-1.042-11.935-1.887-1.93-.502-3.871-.929-5.744-1.555-.94-.298-1.888-.564-2.814-.886l-2.755-1.009c-.452-.169-.927-.332-1.359-.504l-1.346-.573-2.679-1.141-2.584-1.256c-.858-.417-1.718-.824-2.541-1.303l-2.485-1.376c-.831-.448-1.608-.982-2.41-1.466-.788-.507-1.605-.963-2.362-1.505l-2.282-1.588c-.769-.512-1.49-1.083-2.214-1.645l-2.165-1.677-2.062-1.769c-.686-.585-1.373-1.164-2.01-1.793a88.332 88.332 0 0 1-2.869-2.797c-1.327-1.58-2.581-3.179-3.803-4.573-2.252-2.567-4.593-5.215-6.564-8.082-2.054-1.562-4.246-2.861-6.643-3.752-9.023-3.367-19.606-.866-21.632 9.474-2.039 10.344 6.262 19.563 15.144 15.991 8.889-3.579 2.976-12.596 2.976-12.596-8.685 10.673-19.863-.046-13.219-8.189 6.649-8.149 18.864.11 24.08 5.962 5.217 5.859 8.36 16.912 22.738 25.257 6.962 4.038 13.209 4.608 17.806 4.125l2.185.863c.952.358 1.927.661 2.895.995 1.929.698 3.931 1.195 5.926 1.768 4.028.983 8.154 1.854 12.384 2.283l1.585.19c.53.053 1.062.08 1.596.12l3.207.219c2.146.025 4.309.142 6.477.029 4.342-.079 8.712-.551 13.07-1.283 4.37-.697 8.694-1.829 12.98-3.175 8.554-2.764 16.778-6.906 24.35-12.13l2.816-2.002 2.726-2.137c.924-.697 1.782-1.473 2.661-2.227.871-.764 1.77-1.499 2.594-2.317l2.502-2.426 2.385-2.547c.811-.836 1.551-1.737 2.305-2.625.744-.897 1.533-1.76 2.224-2.701l2.131-2.78c.684-.947 1.336-1.917 2.004-2.877.329-.483.674-.956.988-1.45l.927-1.49c.605-1.001 1.262-1.973 1.823-3l1.704-3.072c.572-1.017 1.074-2.138 1.612-3.204l.792-1.62c.266-.542.453-1.029.683-1.546l1.322-3.06.357-.941.301-.826.599-1.652c.419-1.094.762-2.215 1.101-3.336.332-1.124.718-2.23 1-3.368l.865-3.405c.296-1.133.484-2.291.729-3.435l.347-1.72c.11-.574.183-1.155.275-1.733.171-1.157.361-2.31.512-3.468l.355-3.485c.143-1.159.159-2.328.233-3.491.059-1.164.139-2.327.122-3.492l.009-3.49-.154-3.482c-.023-1.161-.18-2.313-.29-3.466-.123-1.152-.215-2.306-.411-3.447l-.52-3.425-.679-3.389c-1.93-8.994-5.097-17.64-9.407-25.53z" fill="#111111"></path></g><g id="SvgjsG1978" featurekey="symbolFeature-0" transform="matrix(0.8421052631578947,0,0,0.8421052631578947,112.89473684210526,70.94652597527755)" fill="#111111"><path xmlns="http://www.w3.org/2000/svg" d="M90.492,34.832l2.469-3.221l-12.579-6.567l-5.056-4.894l-1.937,1.244l-8.907-4.65l-7.592,9.229  c-4.006-2.596-9.367-5.881-12.096-6.728c-4.408-1.368-23.327-0.202-25.692-0.046L3.207,10.751L2.5,12.083l16.084,8.548l0.188,0.102  l0.215-0.015c0.209-0.014,21.021-1.382,25.36-0.033c2.521,0.784,7.658,3.928,11.576,6.462l-6.794,8.258  c-3.222-3.122-6.426-7.335-6.472-7.395l-1.201,0.909c0.189,0.251,3.391,4.461,6.715,7.65l1.851,1.641  c0.792,0.638,1.563,1.17,2.263,1.508l0.289,0.14c0.73,0.351,1.615,0.774,2.543,1.258l1.327,0.721  c2.438,1.383,4.813,3.106,5.194,4.901c0.164,0.771-0.073,1.521-0.729,2.291c-0.977,1.148-2.598,1.818-4.688,1.935  c-1.266,0.077-2.669-0.075-4.104-0.381l-1.504-0.364c-2.98-0.864-5.958-2.413-8.172-4.313l-3.464-2.389  c-1.864-0.786-3.642-0.762-5.382-0.711c-2.436,0.063-4.741,0.123-7.542-1.934C20.008,36.433,15,31.385,14.95,31.334l-1.072,1.061  c0.028,0.028,1.555,1.565,3.926,3.685L2.938,34.416L2.77,35.915l15.869,1.773l8.245,6.562l2.703,5.304l-11.746,7.552l6.478,8.456  l-3.465,4.212l14.384,10.041l4.162,5.436l1.745-1.311l7.605,5.31L68.692,63.25L97.5,41.615L90.492,34.832z M75.135,22.064  l0.539,0.521l-0.745-0.389L75.135,22.064z M28.316,43.739c1.93,0.645,3.697,0.613,5.32,0.572c1.305-0.033,2.517-0.059,3.729,0.241  l-6.503,4.181L28.316,43.739z M20.034,57.488l11.516-7.404l7.544-4.849c0.404,0.225,0.817,0.523,1.235,0.865l-5.876,7.144  l-0.984,1.195l-8.165,9.927L20.034,57.488z M39.688,83.146l-0.37-0.481l0.524,0.365L39.688,83.146z M48.433,87.188L23.054,69.47  l18.43-22.4c2.329,1.996,5.363,3.597,8.451,4.522l1.49,0.392c1.405,0.322,2.796,0.507,4.102,0.507c0.264,0,0.526-0.006,0.782-0.021  c2.511-0.142,4.5-0.994,5.75-2.464c0.965-1.135,1.319-2.34,1.056-3.583c-0.503-2.369-3.229-4.379-6-5.942l-1.328-0.718  c-0.913-0.474-1.795-0.899-2.56-1.266l-0.287-0.138c-0.49-0.235-1.025-0.584-1.583-1.007l-1.233-1.085l14.745-17.62l25.805,13.471  L48.433,87.188z M86.721,39.748c0.396-0.066,0.682-0.01,0.898,0.214c0.329,0.339,0.43,0.938-0.27,1.615  c-0.676,0.658-1.337,0.855-1.693,0.969l0.62,1.177c0.476-0.148,1.059-0.408,1.706-0.995l0.89,0.917l0.817-0.795l-0.938-0.966  c0.831-1.156,0.782-2.403-0.052-3.262c-0.227-0.234-0.473-0.395-0.734-0.496l1.603-2.09l5.614,5.436L72.104,58.803L86.721,39.748z   M84.741,34.686c0.484-1.45,0.036-2.712-1.091-3.326c-1.203-0.655-2.335-0.102-3.575,0.989c-0.89,0.788-1.504,1.046-2.105,0.719  c-0.614-0.334-0.713-1.119-0.257-1.955c0.434-0.8,1.087-1.377,1.687-1.73l-1.05-1.029c-0.559,0.308-1.243,1.004-1.719,1.814  l-1.27-0.692l-0.592,1.087l1.348,0.733c-0.541,1.556,0.007,2.854,1.12,3.46c1.177,0.643,2.234,0.386,3.581-0.78  c1.044-0.89,1.616-1.191,2.151-0.898c0.446,0.243,0.741,0.825,0.239,1.742c-0.483,0.89-1.099,1.303-1.427,1.531l1.011,1.009  c0.439-0.305,0.955-0.754,1.431-1.563l1.204,0.656l0.585-1.075L84.741,34.686z" fill="#111111"></path></g><g id="SvgjsG1979" featurekey="nameFeature-0" transform="matrix(1.3719399386901778,0,0,1.3719399386901778,52.90809582545992,152.12210482122714)" fill="#111111"><path d="M15.4 33.44 c0.28 2.2 -0.32 3.84 -1.8 4.92 s-3.16 1.64 -5.04 1.64 c-1.4 0 -2.76 -0.32 -4.12 -0.96 c-1.32 -0.68 -2.2 -1.72 -2.64 -3.16 c-0.28 -0.96 -0.32 -2 -0.04 -3.16 c0.2 -0.68 1.28 -0.84 1.88 -0.84 c0.44 0 0.92 0.08 1.36 0.2 c0.36 0.16 0.52 0.36 0.48 0.64 c-0.12 0.44 -0.12 1 -0.08 1.72 c0.04 0.84 0.32 1.72 0.76 2.6 c0.48 0.88 1.24 1.32 2.24 1.32 l0.2 0 c1.12 -0.04 1.92 -0.52 2.36 -1.44 s0.72 -1.88 0.76 -2.8 c0 -1.84 -0.64 -3.32 -1.88 -4.44 s-2.56 -2.04 -4.04 -2.8 c-0.88 -0.48 -1.68 -0.96 -2.36 -1.44 c-0.76 -0.52 -1.32 -1.24 -1.64 -2.16 c-0.36 -0.96 -0.36 -1.96 -0.04 -2.96 c0.44 -1.64 1.48 -3.16 3.04 -4.48 c1.6 -1.36 3.28 -2.04 5.04 -2.04 c2.4 0 4.56 1.36 5.16 3.76 c0.24 1.2 0.36 2.24 0.4 3.08 c0 0.28 -0.2 0.52 -0.56 0.64 c-0.4 0.16 -0.84 0.24 -1.28 0.24 s-0.88 -0.08 -1.24 -0.24 c-0.4 -0.12 -0.6 -0.36 -0.6 -0.64 c-0.04 -0.28 -0.04 -0.72 -0.08 -1.24 c-0.04 -0.4 -0.12 -0.92 -0.28 -1.6 c-0.16 -0.56 -0.36 -1.04 -0.6 -1.4 c-0.28 -0.36 -0.64 -0.56 -1.04 -0.56 c-0.48 0 -0.96 0.24 -1.48 0.68 c-1.48 1.4 -2.44 2.6 -2.92 4.64 c-0.32 1.32 0.08 2.44 1.2 3.36 c0.84 0.76 1.8 1.32 2.84 1.76 c1.44 0.68 2.76 1.6 3.96 2.84 s1.88 2.68 2.08 4.32 z M24.8 38.8 c0.92 -0.8 1.72 -1.2 2.36 -1.2 c0.52 0 0.88 0.2 1.04 0.6 c0.12 0.4 0.08 0.76 -0.12 1.04 c-0.36 0.48 -0.8 0.84 -1.4 1.12 c-0.64 0.2 -1.24 0.32 -1.84 0.32 c-1.16 0 -2.08 -0.28 -2.68 -0.8 c-1.08 -0.8 -1.72 -1.92 -1.96 -3.36 c-0.2 -1.44 -0.36 -2.8 -0.4 -4.04 s-0.08 -2.4 -0.08 -3.64 s0.04 -2.4 0.08 -3.64 l-2.56 0 c-0.76 0 -1.12 -0.4 -1.12 -1.16 s0.36 -1.16 1.12 -1.16 l2.64 0 c0.04 -1.32 0.08 -2.64 0.2 -3.96 l0.16 -3.92 c0 -0.68 1.2 -0.84 1.72 -0.84 c0.44 0 0.84 0.08 1.24 0.2 c0.36 0.12 0.52 0.36 0.48 0.64 l-0.12 3.92 l-0.12 3.96 l2.88 0 c0.76 0 1.12 0.4 1.12 1.16 s-0.36 1.16 -1.12 1.16 l-2.96 0 l0 0.64 l-0.12 3.48 c-0.04 1.16 0 2.28 0.04 3.52 c0.04 0.92 0.16 1.96 0.32 3.12 s0.56 2.08 1.2 2.84 z M44.800000000000004 14.68 c1.04 0.8 1.52 1.92 1.48 3.36 c-0.08 1.4 -0.32 2.72 -0.68 3.88 l0 0.08 c-0.12 0.68 -1.12 0.8 -1.72 0.8 c-0.28 0 -0.44 0 -0.48 -0.04 c-0.28 -0.04 -0.6 -0.16 -0.92 -0.28 c-0.36 -0.12 -0.44 -0.32 -0.32 -0.68 c0.4 -1.04 0.6 -2.08 0.6 -3.16 c0 -0.4 -0.04 -1 -0.12 -1.84 c-0.12 -0.84 -0.44 -1.28 -0.96 -1.4 c-2.6 0 -5.4 5.16 -6.04 7.2 c-0.56 1.56 -0.8 3.12 -0.72 4.72 c0.08 2 0.12 4 0.12 6 c-0.04 2.04 -0.12 4 -0.32 6.04 c-0.04 0.28 -0.24 0.48 -0.6 0.6 c-0.28 0.12 -0.68 0.2 -1.16 0.2 c-0.4 0 -0.8 -0.08 -1.2 -0.2 c-0.36 -0.12 -0.56 -0.32 -0.52 -0.6 c0.72 -7.88 0.32 -15.72 -1.24 -23.56 c-0.04 -0.24 0.12 -0.44 0.48 -0.6 c0.4 -0.12 0.8 -0.2 1.2 -0.2 c0.6 0 1.64 0.04 1.76 0.8 c0.12 0.48 0.16 0.96 0.28 1.4 l0.24 1.44 c1.76 -2.72 4.52 -4.88 7.88 -4.88 c1.16 0 2.12 0.32 2.96 0.92 z M48.160000000000004 30.96 l-0.12 -8.44 c0 -0.76 1.2 -0.84 1.72 -0.84 s1.72 0.08 1.72 0.84 l0.24 16.92 c0 0.28 -0.16 0.48 -0.52 0.64 c-0.32 0.12 -0.72 0.16 -1.2 0.16 s-0.88 -0.04 -1.2 -0.16 c-0.36 -0.16 -0.52 -0.36 -0.56 -0.64 z M49.68000000000001 13.8 c1.4 0 2.52 1.08 2.52 2.48 s-1.12 2.48 -2.52 2.48 s-2.48 -1.08 -2.48 -2.48 s1.08 -2.48 2.48 -2.48 z M65.8 15.079999999999998 c3.68 0.48 6.24 3.32 7.08 6.84 c0.24 1.16 0.24 2.36 0 3.52 c-0.84 3.84 -3.88 6.52 -7.88 6.52 c-2.12 0 -4.36 -0.96 -6 -2.28 c0.12 1.64 0.16 3.52 0.28 5.6 c0.08 2.08 -0.04 3.92 -0.36 5.52 c-0.12 0.64 -1.28 0.8 -1.8 0.8 c-0.4 0 -0.8 -0.08 -1.2 -0.2 c-0.36 -0.12 -0.52 -0.32 -0.48 -0.6 c0.28 -2.08 0.4 -4.16 0.36 -6.2 l-0.32 -6.2 l-0.72 -12.36 c0 -0.76 1.2 -0.84 1.72 -0.84 c0.6 0 1.64 0.08 1.76 0.84 l0.12 2.04 c1.72 -1.88 3.96 -3.04 6.52 -3.04 c0.48 0 0.8 0 0.92 0.04 z M69.56 24.52 c0.16 -1.72 -0.16 -3.28 -0.96 -4.72 c-0.76 -1.28 -2 -2.88 -3.56 -3.16 c-1.16 0 -2.28 0.6 -3.32 1.76 c-1 1.16 -1.64 2.28 -1.92 3.36 c-0.24 1 -0.28 1.96 -0.12 2.92 c0.12 1 0.44 1.92 1.04 2.76 c0.8 1.4 2.64 2.8 4.28 2.8 c2.48 0 4.44 -3.48 4.56 -5.72 z M90.36000000000001 22.4 c0.2 1.64 0.28 3.2 0.16 4.64 c-0.2 2.88 -0.44 5.84 -1.68 8.52 c-1.12 2.44 -3.68 4.08 -6.4 4.08 c-1.64 0 -3.12 -0.48 -4.44 -1.48 s-2.16 -2.32 -2.6 -3.92 c-0.4 -1.48 -0.56 -3 -0.44 -4.52 c0.32 -5.12 1.04 -14.2 7.96 -14.2 c2.08 0 3.76 0.64 5.04 1.96 c1.32 1.32 2.12 2.96 2.4 4.92 z M86.96000000000001 29.04 l0.08 -3.04 c0.04 -1.08 0 -2.16 -0.04 -3.32 c-0.08 -1.16 -0.44 -2.32 -1.12 -3.44 c-0.64 -1.16 -1.64 -1.72 -3 -1.72 c-0.44 0 -0.96 0.24 -1.48 0.68 c-2.24 3.16 -2.64 6.96 -2.92 10.68 c-0.04 1.04 -0.04 2.08 0 3.16 c0.08 1.96 0.76 3.64 2 4.96 c0.56 0.6 1.2 0.92 1.88 0.92 c0.36 0 0.76 -0.12 1.12 -0.32 c1.32 -0.84 2.24 -2.12 2.68 -3.8 c0.48 -1.68 0.76 -3.28 0.8 -4.76 z M109.72 21.2 l0 0.36 c0.28 6.12 0.64 12.12 1.24 18.2 c0.04 0.28 -0.12 0.48 -0.48 0.6 c-0.4 0.12 -0.8 0.2 -1.24 0.2 c-0.6 0 -1.6 -0.04 -1.72 -0.8 c-0.16 -1.48 -0.28 -2.96 -0.36 -4.44 c-1.48 2.44 -3.68 3.68 -6.52 3.68 c-4.44 0 -6.56 -2.68 -6.84 -6.8 c-0.12 -1.12 -0.12 -2.2 -0.08 -3.28 c0.12 -2.16 0.16 -4.32 0.12 -6.52 c-0.04 -2.24 0.04 -4.32 0.16 -6.52 c0.12 -0.76 1.12 -0.84 1.72 -0.84 c0.44 0 0.84 0.08 1.24 0.2 c0.36 0.12 0.52 0.36 0.48 0.64 c-0.04 1.08 -0.08 2.56 -0.2 4.6 c-0.12 2 -0.16 4.04 -0.12 6.16 c0 2.36 0.2 7.96 1.64 9.84 c0.56 0.72 1.16 1.08 1.84 1.08 c2.36 0 4.76 -5.28 5.08 -7.52 c0.2 -1.44 0.4 -2.88 0.52 -4.32 c0.12 -1.4 0.12 -2.84 0.08 -4.28 c-0.12 -2.04 -0.16 -3.96 -0.16 -6 c0 -0.76 1.2 -0.84 1.72 -0.84 s1.72 0.08 1.72 0.84 l0.08 2.88 c0 0.96 0.04 1.92 0.08 2.88 z M115.72 14.559999999999999 l11.24 -0.4 c0.4 -0.12 0.8 -0.2 1.2 -0.2 c0.52 0 1 0.08 1.4 0.24 c0.4 0.2 0.52 0.44 0.36 0.76 c-1 1.92 -2.04 3.8 -3.2 5.6 l-3.48 5.52 c-2.36 3.68 -4.56 7.32 -6 11.48 c3.24 -0.48 6.56 -0.8 9.88 -0.8 c0.2 0 0.48 0.04 0.88 0.12 c0.44 0.12 0.68 0.36 0.68 0.64 c0 0.76 -1.12 0.8 -1.72 0.8 l-2.32 0.12 c-1.96 0.12 -6.2 0.4 -8.04 1.04 c-0.08 0.24 -0.28 0.44 -0.64 0.6 c-0.32 0.12 -0.68 0.16 -1.12 0.16 s-0.84 -0.08 -1.24 -0.2 c-0.36 -0.16 -0.52 -0.36 -0.44 -0.56 c0.84 -3 2.16 -6.04 3.96 -9.2 s3.6 -6.04 5.36 -8.68 c1.24 -1.88 2.36 -3.84 3.44 -5.8 l-10.2 0.36 c-0.28 0 -0.6 -0.04 -1 -0.16 c-0.48 -0.08 -0.72 -0.28 -0.72 -0.64 s0.24 -0.56 0.72 -0.64 c0.44 -0.12 0.8 -0.12 1 -0.16 z M143.88000000000002 34.04 c0.24 -0.36 0.76 -0.52 1.56 -0.52 c0.52 0 1 0.08 1.44 0.24 s0.52 0.4 0.32 0.68 c-0.92 1.44 -2.04 2.8 -3.4 4.04 c-1.24 1.16 -2.84 1.72 -4.84 1.72 c-2.48 0 -4.32 -0.8 -5.48 -2.44 s-1.76 -3.56 -1.8 -5.76 c-0.04 -1.32 0.04 -2.56 0.28 -3.8 c0.88 -4.52 3.48 -13.64 9.36 -13.64 c2.44 0 4.04 1.08 4.8 3.28 c0.28 0.92 0.36 1.96 0.24 3.04 c-0.76 5.32 -6.04 8.64 -11.12 8.76 c-0.12 1.16 -0.12 2.32 0 3.48 c0.12 1 0.44 2.12 0.96 3.32 s1.4 1.88 2.6 2 c1.28 0 2.32 -0.52 3.08 -1.6 c0.76 -1 1.4 -1.92 2 -2.8 z M138.36 19.8 l-0.6 1.16 c-1.12 2.28 -1.88 4.64 -2.32 7.08 c1.8 -0.2 3.36 -0.92 4.68 -2.16 c1.36 -1.24 2.28 -2.76 2.72 -4.48 c0.28 -1.04 0.32 -2 0.16 -2.84 c-0.04 -0.4 -0.24 -0.88 -0.56 -1.44 c-0.28 -0.6 -0.68 -0.88 -1.16 -0.88 c-0.56 0.04 -1.12 0.52 -1.72 1.44 c-0.56 0.88 -0.96 1.6 -1.2 2.12 z" fill="#111111"></path></g></svg>